# xmcd CD database file
#
# Track frame offsets:
#	183
#	3868
#	18770
#	33123
#	45490
#	62060
#	80165
#	91950
#	107725
#	126368
#	141055
#	155308
#	168508
#	181473
#	194555
#	210248
#	228975
#
# Disc length: 3121 seconds
#
# Revision: 1
# Processed by: cddbd v1.5.2PL0 Copyright (c) Steve Scherf et al.
# Submitted via: CDex 1.51
#
DISCID=d40c2f11
DTITLE=The Glenn Miller Orchestra - Live At The Meadowbrook Ballroom 1939
DYEAR=1939
DGENRE=Jazz
TTITLE0=Moonlight Serenade (theme)
TTITLE1=Little Brown Jug
TTITLE2=Blue Rain
TTITLE3=Oh Johnny, Oh Jonny Oh!
TTITLE4=In An Old Dutch Garden
TTITLE5=Tiger Rag
TTITLE6=Love With A Capital You
TTITLE7=Bugle Call Rag
TTITLE8=Blue Moonlight
TTITLE9=Indian Summer
TTITLE10=(Why Couldn't It Last) Last Night
TTITLE11=This Changing World
TTITLE12=I Just Got A Letter
TTITLE13=On A Little Street In Singapore
TTITLE14=Faithful To You
TTITLE15=Farewell Blues
TTITLE16=Moonlight Serenade (theme and fade out)
EXTD=YEAR: 1939
EXTT0=
EXTT1=
EXTT2=
EXTT3=
EXTT4=
EXTT5=
EXTT6=
EXTT7=
EXTT8=
EXTT9=
EXTT10=
EXTT11=
EXTT12=
EXTT13=
EXTT14=
EXTT15=
EXTT16=
PLAYORDER=
